# xmcd
#
# Track frame offsets:
#  150
#  16117
#  38927
#  56145
#  77330
#  90685
#  110270
#  124537
#  139870
#  172992
#  194342
#  228240
#  245695
#
# Disc length: 3534 seconds
#
# Revision: 0
# Processed by: cddbd v1.5.1PL2 Copyright (c) Steve Scherf et al.
# Submitted via: Collectorz.com_Music_Collector 6.11
#
DISCID=9f0dcc0d
DTITLE=Kilborn Alley Blues Band - Put It In The Alley
DYEAR=2006
DGENRE=Blues
TTITLE0=Your Next Baby's Daddy
TTITLE1=Tales From The Alley
TTITLE2=The Blues Take Me In
TTITLE3=Thousand Miles
TTITLE4=Soldier Blues
TTITLE5=Can I Get A Hello?
TTITLE6=Got Dues To Pay
TTITLE7=Home To My Baby
TTITLE8=The Breakaway
TTITLE9=Behind My Back
TTITLE10=Mr. Campbell's Blues
TTITLE11=Blues Boy From Illinois
TTITLE12=I Like To Live The Love
EXTD=
EXTT0=
EXTT1=
EXTT2=
EXTT3=
EXTT4=
EXTT5=
EXTT6=
EXTT7=
EXTT8=
EXTT9=
EXTT10=
EXTT11=
EXTT12=
PLAYORDER=
